# Blender v2.92.0 OBJ File: ''
# www.blender.org
o Wheels_Right_Object_3
v -1.397324 0.025847 0.094247
v -1.434755 0.048455 0.037859
v -1.397324 0.075956 0.057841
v -1.434755 0.015342 0.061918
v -1.397324 -0.036092 0.094247
v -1.434755 -0.025587 0.061918
v -1.397324 -0.086201 0.057841
v -1.434755 -0.058701 0.037859
v -1.397324 -0.105341 -0.001066
v -1.434755 -0.071348 -0.001066
v -1.397324 -0.086201 -0.059973
v -1.434755 -0.058700 -0.039993
v -1.397324 -0.036092 -0.096380
v -1.434755 -0.025587 -0.064050
v -1.397324 0.025847 -0.096380
v -1.434755 0.015342 -0.064050
v -1.397324 0.075956 -0.059973
v -1.434755 0.048455 -0.039993
v -1.397324 0.095096 -0.001066
v -1.434755 0.061103 -0.001066
v -1.064796 0.133221 0.238553
v -1.397324 0.234495 0.137278
v -1.064796 0.234495 0.137278
v -1.397324 0.133220 0.238553
v -1.064796 -0.005124 0.275622
v -1.397324 -0.005124 0.275622
v -1.064796 -0.143468 0.238553
v -1.397324 -0.143468 0.238553
v -1.064796 -0.244741 0.137277
v -1.397324 -0.244741 0.137277
v -1.064796 -0.281811 -0.001066
v -1.397324 -0.281811 -0.001066
v -1.064796 -0.244741 -0.139410
v -1.397324 -0.281811 -0.001066
v -1.064796 -0.281811 -0.001066
v -1.397324 -0.244741 -0.139410
v -1.064796 -0.143467 -0.240685
v -1.397324 -0.143467 -0.240685
v -1.064796 -0.005123 -0.277755
v -1.397324 -0.005123 -0.277755
v -1.064796 0.133222 -0.240685
v -1.397324 0.133221 -0.240685
v -1.064796 0.234496 -0.139410
v -1.397324 0.234496 -0.139410
v -1.064796 0.271566 -0.001066
v -1.397324 0.271566 -0.001066
v -1.397324 0.271566 -0.001066
v -1.064796 0.271566 -0.001066
v -1.064796 0.271566 -0.001066
v -1.064796 0.133221 0.238553
v -1.064796 0.234495 0.137278
v -1.064796 0.234496 -0.139410
v -1.064796 0.133222 -0.240685
v -1.064796 -0.005123 -0.277755
v -1.064796 -0.143467 -0.240685
v -1.064796 -0.244741 -0.139410
v -1.064796 -0.281811 -0.001066
v -1.064796 -0.244741 0.137277
v -1.064796 -0.143468 0.238553
v -1.064796 -0.005124 0.275622
v -1.397324 0.133220 0.238553
v -1.397324 0.271566 -0.001066
v -1.397324 0.234495 0.137278
v -1.397324 -0.005124 0.275622
v -1.397324 -0.143468 0.238553
v -1.397324 -0.244741 0.137277
v -1.397324 -0.281811 -0.001066
v -1.397324 -0.244741 -0.139410
v -1.397324 -0.143467 -0.240685
v -1.397324 -0.005123 -0.277755
v -1.397324 0.133221 -0.240685
v -1.397324 0.234496 -0.139410
v -1.269194 -0.074460 -0.002253
v -1.269194 -0.039261 -0.063220
v -1.269194 -0.039261 0.058713
v -1.269194 0.031137 0.058713
v -1.269194 0.066335 -0.002253
v -1.269194 0.031137 -0.063220
v -1.269194 0.066335 -0.002253
vt 0.775405 0.799245
vt 0.777578 0.804665
vt 0.780221 0.802744
vt 0.774395 0.802352
vt 0.769451 0.799245
vt 0.770461 0.802352
vt 0.764635 0.802744
vt 0.767278 0.804665
vt 0.762795 0.808406
vt 0.766063 0.808406
vt 0.764635 0.814068
vt 0.767278 0.812147
vt 0.769451 0.817567
vt 0.770461 0.814460
vt 0.775405 0.817567
vt 0.774395 0.814460
vt 0.780221 0.814068
vt 0.777578 0.812147
vt 0.782060 0.808406
vt 0.778793 0.808406
vt 0.615604 0.902777
vt 0.647543 0.889022
vt 0.615604 0.889022
vt 0.647543 0.902778
vt 0.615604 0.916533
vt 0.647543 0.916533
vt 0.615604 0.930288
vt 0.647543 0.930288
vt 0.615604 0.944043
vt 0.647543 0.944043
vt 0.615604 0.957798
vt 0.647543 0.957798
vt 0.615607 0.944043
vt 0.647543 0.957798
vt 0.615604 0.957798
vt 0.647543 0.944043
vt 0.615607 0.930288
vt 0.647543 0.930288
vt 0.615607 0.916533
vt 0.647543 0.916533
vt 0.615607 0.902778
vt 0.647543 0.902778
vt 0.615607 0.889023
vt 0.647543 0.889023
vt 0.615607 0.875267
vt 0.647543 0.875267
vt 0.647543 0.875267
vt 0.615607 0.875267
vt 0.799222 0.751522
vt 0.785936 0.728509
vt 0.795662 0.738235
vt 0.795662 0.764808
vt 0.785936 0.774535
vt 0.772649 0.778095
vt 0.759363 0.774535
vt 0.749636 0.764808
vt 0.746076 0.751522
vt 0.749636 0.738235
vt 0.759363 0.728509
vt 0.772649 0.724949
vt 0.785703 0.785428
vt 0.798990 0.808441
vt 0.795430 0.795154
vt 0.772417 0.781868
vt 0.759130 0.785428
vt 0.749404 0.795154
vt 0.745844 0.808441
vt 0.749404 0.821728
vt 0.759130 0.831454
vt 0.772417 0.835014
vt 0.785703 0.831454
vt 0.795430 0.821728
vn 0.6537 -0.4448 -0.6123
vn 0.6536 -0.4448 -0.6123
vn 0.6536 0.0000 -0.7568
vn 0.6537 0.4448 -0.6123
vn 0.6536 0.7198 -0.2339
vn 0.6537 0.7198 -0.2339
vn 0.6536 0.7198 0.2339
vn 0.6536 0.4448 0.6123
vn 0.6537 0.4448 0.6123
vn 0.6537 0.0000 0.7568
vn 0.6537 -0.4448 0.6123
vn 0.6536 -0.4448 0.6123
vn 0.6536 -0.7198 0.2339
vn 0.6537 -0.7198 -0.2339
vn 0.6537 -0.7197 -0.2339
vn 1.0000 0.0000 0.0000
vn 0.0000 -0.7071 -0.7071
vn 0.0000 -0.2588 -0.9659
vn 0.0000 0.2588 -0.9659
vn 0.0000 0.7071 -0.7071
vn 0.0000 0.9659 -0.2588
vn 0.0000 0.9659 0.2588
vn 0.0000 0.7071 0.7071
vn 0.0000 0.2588 0.9659
vn 0.0000 -0.2588 0.9659
vn 0.0000 -0.7071 0.7071
vn 0.0000 -0.9659 0.2588
vn 0.0000 -0.9659 -0.2588
vn -1.0000 -0.0000 0.0000
s 1
f 1/1/1 2/2/1 3/3/1
f 1/1/2 4/4/2 2/2/2
f 5/5/3 4/4/3 1/1/3
f 5/5/3 6/6/3 4/4/3
f 7/7/4 6/6/4 5/5/4
f 7/7/4 8/8/4 6/6/4
f 9/9/5 8/8/5 7/7/5
f 9/9/6 10/10/6 8/8/6
f 11/11/7 10/10/7 9/9/7
f 11/11/7 12/12/7 10/10/7
f 13/13/8 12/12/8 11/11/8
f 13/13/9 14/14/9 12/12/9
f 15/15/10 14/14/10 13/13/10
f 15/15/10 16/16/10 14/14/10
f 17/17/11 16/16/11 15/15/11
f 17/17/12 18/18/12 16/16/12
f 19/19/13 18/18/13 17/17/13
f 19/19/13 20/20/13 18/18/13
f 3/3/14 20/20/14 19/19/14
f 3/3/15 2/2/15 20/20/15
f 4/4/16 20/20/16 2/2/16
f 8/8/16 4/4/16 6/6/16
f 12/12/16 8/8/16 10/10/16
f 16/16/16 12/12/16 14/14/16
f 20/20/16 16/16/16 18/18/16
f 8/8/16 20/20/16 4/4/16
f 12/12/16 20/20/16 8/8/16
f 16/16/16 20/20/16 12/12/16
f 21/21/17 22/22/17 23/23/17
f 21/21/17 24/24/17 22/22/17
f 25/25/18 24/24/18 21/21/18
f 25/25/18 26/26/18 24/24/18
f 27/27/19 26/26/19 25/25/19
f 27/27/19 28/28/19 26/26/19
f 29/29/20 28/28/20 27/27/20
f 29/29/20 30/30/20 28/28/20
f 31/31/21 30/30/21 29/29/21
f 31/31/21 32/32/21 30/30/21
f 33/33/22 34/34/22 35/35/22
f 33/33/22 36/36/22 34/34/22
f 37/37/23 36/36/23 33/33/23
f 37/37/23 38/38/23 36/36/23
f 39/39/24 38/38/24 37/37/24
f 39/39/24 40/40/24 38/38/24
f 41/41/25 40/40/25 39/39/25
f 41/41/25 42/42/25 40/40/25
f 43/43/26 42/42/26 41/41/26
f 43/43/26 44/44/26 42/42/26
f 45/45/27 44/44/27 43/43/27
f 45/45/27 46/46/27 44/44/27
f 23/23/28 47/47/28 48/48/28
f 23/23/28 22/22/28 47/47/28
f 49/49/29 50/50/29 51/51/29
f 52/52/29 50/50/29 49/49/29
f 53/53/29 50/50/29 52/52/29
f 54/54/29 50/50/29 53/53/29
f 55/55/29 50/50/29 54/54/29
f 56/56/29 50/50/29 55/55/29
f 57/57/29 50/50/29 56/56/29
f 58/58/29 50/50/29 57/57/29
f 59/59/29 50/50/29 58/58/29
f 60/60/29 50/50/29 59/59/29
f 61/61/16 62/62/16 63/63/16
f 64/64/16 62/62/16 61/61/16
f 65/65/16 62/62/16 64/64/16
f 66/66/16 62/62/16 65/65/16
f 67/67/16 62/62/16 66/66/16
f 68/68/16 62/62/16 67/67/16
f 69/69/16 62/62/16 68/68/16
f 70/70/16 62/62/16 69/69/16
f 71/71/16 62/62/16 70/70/16
f 72/72/16 62/62/16 71/71/16
l 73 74
l 75 73
l 76 75
l 76 77
l 74 78
l 78 79
