# Blender v2.92.0 OBJ File: 'IS4.blend'
# www.blender.org
o Wheels_Left_Object_4
v 1.269194 0.370590 -1.910039
v 1.269194 0.300192 -1.910039
v 1.269194 0.264993 -1.971006
v 1.269194 0.300192 -2.031972
v 1.269194 0.370590 -2.031972
v 1.269194 0.405789 -1.971006
v 1.269194 0.405789 -1.971006
v 1.397324 0.430726 -1.942280
v 1.397324 0.396202 -1.890856
v 1.434755 0.398030 -1.951579
v 1.434755 0.375216 -1.917598
v 1.397324 0.338044 -1.869546
v 1.434755 0.336785 -1.903516
v 1.397324 0.278468 -1.886490
v 1.434755 0.297416 -1.914713
v 1.397324 0.240230 -1.935216
v 1.434755 0.272148 -1.946911
v 1.397324 0.237935 -1.997112
v 1.434755 0.270631 -1.987813
v 1.397324 0.272459 -2.048536
v 1.434755 0.293445 -2.021794
v 1.397324 0.330617 -2.069846
v 1.434755 0.331876 -2.035876
v 1.397324 0.390193 -2.052902
v 1.434755 0.371245 -2.024679
v 1.397324 0.428431 -2.004176
v 1.434755 0.396513 -1.992481
v 1.064796 0.606918 -1.922238
v 1.064796 0.546669 -1.792302
v 1.397324 0.606918 -1.922238
v 1.397324 0.546669 -1.792302
v 1.064796 0.429524 -1.709899
v 1.397324 0.429524 -1.709899
v 1.064796 0.286872 -1.697108
v 1.397324 0.286872 -1.697108
v 1.064796 0.156937 -1.757357
v 1.397324 0.156937 -1.757357
v 1.064796 0.074534 -1.874502
v 1.397324 0.074534 -1.874502
v 1.064796 0.074534 -1.874502
v 1.064796 0.061743 -2.017154
v 1.397324 0.074534 -1.874502
v 1.397324 0.061743 -2.017154
v 1.064796 0.121992 -2.147090
v 1.397324 0.121992 -2.147090
v 1.064796 0.239136 -2.229493
v 1.397324 0.239137 -2.229493
v 1.064796 0.381789 -2.242284
v 1.397324 0.381789 -2.242284
v 1.064796 0.511724 -2.182035
v 1.397324 0.511724 -2.182035
v 1.064796 0.594127 -2.064890
v 1.397324 0.594127 -2.064890
v 1.064796 0.594127 -2.064890
v 1.397324 0.594127 -2.064890
v 1.064796 0.606918 -1.922238
v 1.064796 0.594127 -2.064890
v 1.064796 0.546669 -1.792302
v 1.064796 0.429524 -1.709899
v 1.064796 0.286872 -1.697108
v 1.064796 0.156937 -1.757357
v 1.064796 0.074534 -1.874502
v 1.064796 0.061743 -2.017154
v 1.064796 0.121992 -2.147090
v 1.064796 0.239136 -2.229493
v 1.064796 0.381789 -2.242284
v 1.064796 0.511724 -2.182035
v 1.397324 0.606918 -1.922238
v 1.397324 0.546669 -1.792302
v 1.397324 0.594127 -2.064890
v 1.397324 0.511724 -2.182035
v 1.397324 0.381789 -2.242284
v 1.397324 0.239137 -2.229493
v 1.397324 0.121992 -2.147090
v 1.397324 0.061743 -2.017154
v 1.397324 0.074534 -1.874502
v 1.397324 0.156937 -1.757357
v 1.397324 0.286872 -1.697108
v 1.397324 0.429524 -1.709899
vt 0.777578 0.804665
vt 0.775405 0.799245
vt 0.780221 0.802744
vt 0.774395 0.802352
vt 0.769451 0.799245
vt 0.770461 0.802352
vt 0.764635 0.802744
vt 0.767278 0.804665
vt 0.762795 0.808406
vt 0.766063 0.808406
vt 0.764635 0.814068
vt 0.767278 0.812147
vt 0.769451 0.817567
vt 0.770461 0.814460
vt 0.775405 0.817567
vt 0.774395 0.814460
vt 0.780221 0.814068
vt 0.777578 0.812147
vt 0.782060 0.808406
vt 0.778793 0.808406
vt 0.647543 0.889022
vt 0.615604 0.902777
vt 0.615604 0.889022
vt 0.647543 0.902778
vt 0.615604 0.916533
vt 0.647543 0.916533
vt 0.615604 0.930288
vt 0.647543 0.930288
vt 0.615604 0.944043
vt 0.647543 0.944043
vt 0.615604 0.957798
vt 0.647543 0.957798
vt 0.647543 0.957798
vt 0.615607 0.944043
vt 0.615604 0.957798
vt 0.647543 0.944043
vt 0.615607 0.930288
vt 0.647543 0.930288
vt 0.615607 0.916533
vt 0.647543 0.916533
vt 0.615607 0.902778
vt 0.647543 0.902778
vt 0.615607 0.889023
vt 0.647543 0.889023
vt 0.615607 0.875267
vt 0.647543 0.875267
vt 0.647543 0.875267
vt 0.615607 0.875267
vt 0.785936 0.728509
vt 0.799222 0.751522
vt 0.795662 0.738235
vt 0.772649 0.724949
vt 0.759363 0.728509
vt 0.749636 0.738235
vt 0.746076 0.751522
vt 0.749636 0.764808
vt 0.759363 0.774535
vt 0.772649 0.778095
vt 0.785936 0.774535
vt 0.795662 0.764808
vt 0.798990 0.808441
vt 0.785703 0.785428
vt 0.795430 0.795154
vt 0.795430 0.821728
vt 0.785703 0.831454
vt 0.772417 0.835014
vt 0.759130 0.831454
vt 0.749404 0.821728
vt 0.745844 0.808441
vt 0.749404 0.795154
vt 0.759130 0.785428
vt 0.772417 0.781868
vn -0.6537 -0.6283 -0.4218
vn -0.6536 -0.2604 -0.7106
vn -0.6537 -0.2604 -0.7106
vn -0.6536 0.2070 -0.7279
vn -0.6537 0.2070 -0.7279
vn -0.6537 0.5954 -0.4672
vn -0.6537 0.7563 -0.0280
vn -0.6536 0.6283 0.4218
vn -0.6537 0.6283 0.4218
vn -0.6536 0.2604 0.7106
vn -0.6537 0.2604 0.7106
vn -0.6537 -0.2070 0.7279
vn -0.6536 -0.2070 0.7279
vn -0.6537 -0.5954 0.4672
vn -0.6537 -0.7563 0.0280
vn -1.0000 0.0000 0.0000
vn 0.0000 -0.9072 -0.4207
vn 0.0000 -0.5753 -0.8179
vn 0.0000 -0.0893 -0.9960
vn 0.0000 0.4207 -0.9072
vn 0.0000 0.8179 -0.5753
vn 0.0000 0.9960 -0.0893
vn 0.0000 0.9072 0.4207
vn 0.0000 0.5753 0.8179
vn 0.0000 0.0893 0.9960
vn 0.0000 -0.4207 0.9072
vn 0.0000 -0.8179 0.5753
vn 0.0000 -0.9960 0.0893
vn 1.0000 0.0000 0.0000
s off
f 10/1/1 9/2/1 8/3/1
f 10/1/1 11/4/1 9/2/1
f 11/4/2 12/5/2 9/2/2
f 11/4/3 13/6/3 12/5/3
f 13/6/4 14/7/4 12/5/4
f 13/6/5 15/8/5 14/7/5
f 15/8/6 16/9/6 14/7/6
f 15/8/6 17/10/6 16/9/6
f 17/10/7 18/11/7 16/9/7
f 17/10/7 19/12/7 18/11/7
f 19/12/8 20/13/8 18/11/8
f 19/12/9 21/14/9 20/13/9
f 21/14/10 22/15/10 20/13/10
f 21/14/11 23/16/11 22/15/11
f 23/16/12 24/17/12 22/15/12
f 23/16/13 25/18/13 24/17/13
f 25/18/14 26/19/14 24/17/14
f 25/18/14 27/20/14 26/19/14
f 27/20/15 8/3/15 26/19/15
f 27/20/15 10/1/15 8/3/15
f 27/20/16 11/4/16 10/1/16
f 23/16/16 27/20/16 25/18/16
f 19/12/16 23/16/16 21/14/16
f 15/8/16 19/12/16 17/10/16
f 11/4/16 15/8/16 13/6/16
f 23/16/16 11/4/16 27/20/16
f 19/12/16 11/4/16 23/16/16
f 15/8/16 11/4/16 19/12/16
f 30/21/17 29/22/17 28/23/17
f 30/21/17 31/24/17 29/22/17
f 31/24/18 32/25/18 29/22/18
f 31/24/18 33/26/18 32/25/18
f 33/26/19 34/27/19 32/25/19
f 33/26/19 35/28/19 34/27/19
f 35/28/20 36/29/20 34/27/20
f 35/28/20 37/30/20 36/29/20
f 37/30/21 38/31/21 36/29/21
f 37/30/21 39/32/21 38/31/21
f 42/33/22 41/34/22 40/35/22
f 42/33/22 43/36/22 41/34/22
f 43/36/23 44/37/23 41/34/23
f 43/36/23 45/38/23 44/37/23
f 45/38/24 46/39/24 44/37/24
f 45/38/24 47/40/24 46/39/24
f 47/40/25 48/41/25 46/39/25
f 47/40/25 49/42/25 48/41/25
f 49/42/26 50/43/26 48/41/26
f 49/42/26 51/44/26 50/43/26
f 51/44/27 52/45/27 50/43/27
f 51/44/27 53/46/27 52/45/27
f 55/47/28 28/23/28 54/48/28
f 55/47/28 30/21/28 28/23/28
f 58/49/29 57/50/29 56/51/29
f 59/52/29 57/50/29 58/49/29
f 60/53/29 57/50/29 59/52/29
f 61/54/29 57/50/29 60/53/29
f 62/55/29 57/50/29 61/54/29
f 63/56/29 57/50/29 62/55/29
f 64/57/29 57/50/29 63/56/29
f 65/58/29 57/50/29 64/57/29
f 66/59/29 57/50/29 65/58/29
f 67/60/29 57/50/29 66/59/29
f 70/61/16 69/62/16 68/63/16
f 71/64/16 69/62/16 70/61/16
f 72/65/16 69/62/16 71/64/16
f 73/66/16 69/62/16 72/65/16
f 74/67/16 69/62/16 73/66/16
f 75/68/16 69/62/16 74/67/16
f 76/69/16 69/62/16 75/68/16
f 77/70/16 69/62/16 76/69/16
f 78/71/16 69/62/16 77/70/16
f 79/72/16 69/62/16 78/71/16
l 4 5
l 5 6
l 1 7
l 3 4
l 1 2
l 2 3
o Wheels_Right_Object_3
v -1.269194 0.370590 -2.026776
v -1.269194 0.300192 -2.026776
v -1.269194 0.264993 -2.087742
v -1.269194 0.300192 -2.148709
v -1.269194 0.370590 -2.148709
v -1.269194 0.405789 -2.087742
v -1.269194 0.405789 -2.087742
v -1.397324 0.415409 -2.027649
v -1.434755 0.387908 -2.047630
v -1.397324 0.365300 -1.991242
v -1.434755 0.354795 -2.023572
v -1.397324 0.303361 -1.991242
v -1.434755 0.313866 -2.023572
v -1.397324 0.253252 -2.027649
v -1.434755 0.280753 -2.047630
v -1.397324 0.234112 -2.086556
v -1.434755 0.268105 -2.086556
v -1.397324 0.253252 -2.145463
v -1.434755 0.280753 -2.125482
v -1.397324 0.303361 -2.181870
v -1.434755 0.313866 -2.149540
v -1.397324 0.365300 -2.181870
v -1.434755 0.354795 -2.149540
v -1.397324 0.415409 -2.145463
v -1.434755 0.387908 -2.125482
v -1.397324 0.434549 -2.086556
v -1.434755 0.400556 -2.086556
v -1.064796 0.573949 -1.948212
v -1.397324 0.573949 -1.948212
v -1.064796 0.472675 -1.846937
v -1.397324 0.472674 -1.846937
v -1.064796 0.334330 -1.809868
v -1.397324 0.334330 -1.809868
v -1.064796 0.195986 -1.846937
v -1.397324 0.195986 -1.846937
v -1.064796 0.094712 -1.948212
v -1.397324 0.094712 -1.948212
v -1.064796 0.057642 -2.086556
v -1.397324 0.057642 -2.086556
v -1.064796 0.057642 -2.086556
v -1.397324 0.057642 -2.086556
v -1.064796 0.094712 -2.224900
v -1.397324 0.094712 -2.224900
v -1.064796 0.195986 -2.326175
v -1.397324 0.195986 -2.326175
v -1.064796 0.334330 -2.363244
v -1.397324 0.334330 -2.363244
v -1.064796 0.472675 -2.326175
v -1.397324 0.472674 -2.326175
v -1.064796 0.573949 -2.224900
v -1.397324 0.573949 -2.224900
v -1.064796 0.611019 -2.086556
v -1.397324 0.611019 -2.086556
v -1.064796 0.611019 -2.086556
v -1.397324 0.611019 -2.086556
v -1.064796 0.573949 -1.948212
v -1.064796 0.472675 -1.846937
v -1.064796 0.611019 -2.086556
v -1.064796 0.573949 -2.224900
v -1.064796 0.472675 -2.326175
v -1.064796 0.334330 -2.363244
v -1.064796 0.195986 -2.326175
v -1.064796 0.094712 -2.224900
v -1.064796 0.057642 -2.086556
v -1.064796 0.094712 -1.948212
v -1.064796 0.195986 -1.846937
v -1.064796 0.334330 -1.809868
v -1.397324 0.573949 -1.948212
v -1.397324 0.611019 -2.086556
v -1.397324 0.472674 -1.846937
v -1.397324 0.334330 -1.809868
v -1.397324 0.195986 -1.846937
v -1.397324 0.094712 -1.948212
v -1.397324 0.057642 -2.086556
v -1.397324 0.094712 -2.224900
v -1.397324 0.195986 -2.326175
v -1.397324 0.334330 -2.363244
v -1.397324 0.472674 -2.326175
v -1.397324 0.573949 -2.224900
vt 0.775405 0.799245
vt 0.777578 0.804665
vt 0.780221 0.802744
vt 0.774395 0.802352
vt 0.769451 0.799245
vt 0.770461 0.802352
vt 0.764635 0.802744
vt 0.767278 0.804665
vt 0.762795 0.808406
vt 0.766063 0.808406
vt 0.764635 0.814068
vt 0.767278 0.812147
vt 0.769451 0.817567
vt 0.770461 0.814460
vt 0.775405 0.817567
vt 0.774395 0.814460
vt 0.780221 0.814068
vt 0.777578 0.812147
vt 0.782060 0.808406
vt 0.778793 0.808406
vt 0.615604 0.902777
vt 0.647543 0.889022
vt 0.615604 0.889022
vt 0.647543 0.902778
vt 0.615604 0.916533
vt 0.647543 0.916533
vt 0.615604 0.930288
vt 0.647543 0.930288
vt 0.615604 0.944043
vt 0.647543 0.944043
vt 0.615604 0.957798
vt 0.647543 0.957798
vt 0.615607 0.944043
vt 0.647543 0.957798
vt 0.615604 0.957798
vt 0.647543 0.944043
vt 0.615607 0.930288
vt 0.647543 0.930288
vt 0.615607 0.916533
vt 0.647543 0.916533
vt 0.615607 0.902778
vt 0.647543 0.902778
vt 0.615607 0.889023
vt 0.647543 0.889023
vt 0.615607 0.875267
vt 0.647543 0.875267
vt 0.647543 0.875267
vt 0.615607 0.875267
vt 0.799222 0.751522
vt 0.785936 0.728509
vt 0.795662 0.738235
vt 0.795662 0.764808
vt 0.785936 0.774535
vt 0.772649 0.778095
vt 0.759363 0.774535
vt 0.749636 0.764808
vt 0.746076 0.751522
vt 0.749636 0.738235
vt 0.759363 0.728509
vt 0.772649 0.724949
vt 0.785703 0.785428
vt 0.798990 0.808441
vt 0.795430 0.795154
vt 0.772417 0.781868
vt 0.759130 0.785428
vt 0.749404 0.795154
vt 0.745844 0.808441
vt 0.749404 0.821728
vt 0.759130 0.831454
vt 0.772417 0.835014
vt 0.785703 0.831454
vt 0.795430 0.821728
vn 0.6536 -0.4448 -0.6123
vn 0.6537 -0.4448 -0.6123
vn 0.6536 0.0000 -0.7568
vn 0.6537 0.0000 -0.7568
vn 0.6537 0.4448 -0.6123
vn 0.6536 0.4448 -0.6123
vn 0.6537 0.7198 -0.2339
vn 0.6536 0.7198 -0.2339
vn 0.6536 0.7198 0.2339
vn 0.6537 0.7198 0.2339
vn 0.6537 0.4448 0.6123
vn 0.6536 0.0000 0.7568
vn 0.6537 0.0000 0.7568
vn 0.6536 -0.4448 0.6123
vn 0.6537 -0.4448 0.6123
vn 0.6537 -0.7198 0.2339
vn 0.6536 -0.7198 0.2339
vn 0.6537 -0.7198 -0.2339
vn 1.0000 -0.0000 0.0000
vn 0.0000 -0.7071 -0.7071
vn 0.0000 -0.2588 -0.9659
vn 0.0000 0.2588 -0.9659
vn 0.0000 0.7071 -0.7071
vn 0.0000 0.9659 -0.2588
vn 0.0000 0.9659 0.2588
vn 0.0000 0.7071 0.7071
vn 0.0000 0.2588 0.9659
vn -0.0000 -0.2588 0.9659
vn -0.0000 -0.7071 0.7071
vn 0.0000 -0.9659 0.2588
vn 0.0000 -0.9659 -0.2588
vn -1.0000 0.0000 0.0000
s off
f 89/73/30 88/74/30 87/75/30
f 89/73/31 90/76/31 88/74/31
f 91/77/32 90/76/32 89/73/32
f 91/77/33 92/78/33 90/76/33
f 93/79/34 92/78/34 91/77/34
f 93/79/35 94/80/35 92/78/35
f 95/81/36 94/80/36 93/79/36
f 95/81/37 96/82/37 94/80/37
f 97/83/38 96/82/38 95/81/38
f 97/83/39 98/84/39 96/82/39
f 99/85/40 98/84/40 97/83/40
f 99/85/40 100/86/40 98/84/40
f 101/87/41 100/86/41 99/85/41
f 101/87/42 102/88/42 100/86/42
f 103/89/43 102/88/43 101/87/43
f 103/89/44 104/90/44 102/88/44
f 105/91/45 104/90/45 103/89/45
f 105/91/46 106/92/46 104/90/46
f 87/75/47 106/92/47 105/91/47
f 87/75/47 88/74/47 106/92/47
f 90/76/48 106/92/48 88/74/48
f 94/80/48 90/76/48 92/78/48
f 98/84/48 94/80/48 96/82/48
f 102/88/48 98/84/48 100/86/48
f 106/92/48 102/88/48 104/90/48
f 94/80/48 106/92/48 90/76/48
f 98/84/48 106/92/48 94/80/48
f 102/88/48 106/92/48 98/84/48
f 109/93/49 108/94/49 107/95/49
f 109/93/49 110/96/49 108/94/49
f 111/97/50 110/96/50 109/93/50
f 111/97/50 112/98/50 110/96/50
f 113/99/51 112/98/51 111/97/51
f 113/99/51 114/100/51 112/98/51
f 115/101/52 114/100/52 113/99/52
f 115/101/52 116/102/52 114/100/52
f 117/103/53 116/102/53 115/101/53
f 117/103/53 118/104/53 116/102/53
f 121/105/54 120/106/54 119/107/54
f 121/105/54 122/108/54 120/106/54
f 123/109/55 122/108/55 121/105/55
f 123/109/55 124/110/55 122/108/55
f 125/111/56 124/110/56 123/109/56
f 125/111/56 126/112/56 124/110/56
f 127/113/57 126/112/57 125/111/57
f 127/113/57 128/114/57 126/112/57
f 129/115/58 128/114/58 127/113/58
f 129/115/58 130/116/58 128/114/58
f 131/117/59 130/116/59 129/115/59
f 131/117/59 132/118/59 130/116/59
f 107/95/60 134/119/60 133/120/60
f 107/95/60 108/94/60 134/119/60
f 137/121/61 136/122/61 135/123/61
f 138/124/61 136/122/61 137/121/61
f 139/125/61 136/122/61 138/124/61
f 140/126/61 136/122/61 139/125/61
f 141/127/61 136/122/61 140/126/61
f 142/128/61 136/122/61 141/127/61
f 143/129/61 136/122/61 142/128/61
f 144/130/61 136/122/61 143/129/61
f 145/131/61 136/122/61 144/130/61
f 146/132/61 136/122/61 145/131/61
f 149/133/48 148/134/48 147/135/48
f 150/136/48 148/134/48 149/133/48
f 151/137/48 148/134/48 150/136/48
f 152/138/48 148/134/48 151/137/48
f 153/139/48 148/134/48 152/138/48
f 154/140/48 148/134/48 153/139/48
f 155/141/48 148/134/48 154/140/48
f 156/142/48 148/134/48 155/141/48
f 157/143/48 148/134/48 156/142/48
f 158/144/48 148/134/48 157/143/48
l 82 83
l 81 82
l 80 81
l 80 86
l 83 84
l 84 85
