# Blender v2.92.0 OBJ File: ''
# www.blender.org
o Wheels_Left_Object_4.001
v 1.434755 0.058577 0.016572
v 1.397324 0.056748 0.077295
v 1.397324 0.091273 0.025871
v 1.434755 0.035762 0.050553
v 1.397324 -0.001410 0.098605
v 1.434755 -0.002669 0.064635
v 1.397324 -0.060986 0.081661
v 1.434755 -0.042038 0.053438
v 1.397324 -0.099224 0.032935
v 1.434755 -0.067305 0.021240
v 1.397324 -0.101518 -0.028961
v 1.434755 -0.068823 -0.019662
v 1.397324 -0.066994 -0.080385
v 1.434755 -0.046008 -0.053643
v 1.397324 -0.008836 -0.101695
v 1.434755 -0.007577 -0.067725
v 1.397324 0.050739 -0.084751
v 1.434755 0.031792 -0.056528
v 1.397324 0.088978 -0.036025
v 1.434755 0.057059 -0.024330
v 1.397324 0.267464 0.045913
v 1.064796 0.207215 0.175849
v 1.064796 0.267464 0.045913
v 1.397324 0.207215 0.175849
v 1.064796 0.090070 0.258252
v 1.397324 0.090070 0.258252
v 1.064796 -0.052582 0.271043
v 1.397324 -0.052582 0.271043
v 1.064796 -0.182517 0.210794
v 1.397324 -0.182517 0.210794
v 1.064796 -0.264920 0.093649
v 1.397324 -0.264920 0.093649
v 1.397324 -0.264920 0.093649
v 1.064796 -0.277710 -0.049003
v 1.064796 -0.264920 0.093649
v 1.397324 -0.277710 -0.049003
v 1.064796 -0.217461 -0.178939
v 1.397324 -0.217461 -0.178939
v 1.064796 -0.100317 -0.261342
v 1.397324 -0.100316 -0.261342
v 1.064796 0.042336 -0.274133
v 1.397324 0.042336 -0.274133
v 1.064796 0.172271 -0.213884
v 1.397324 0.172271 -0.213884
v 1.064796 0.254674 -0.096739
v 1.397324 0.254674 -0.096739
v 1.397324 0.254674 -0.096739
v 1.064796 0.254674 -0.096739
v 1.064796 0.207215 0.175849
v 1.064796 0.254674 -0.096739
v 1.064796 0.267464 0.045913
v 1.064796 0.090070 0.258252
v 1.064796 -0.052582 0.271043
v 1.064796 -0.182517 0.210794
v 1.064796 -0.264920 0.093649
v 1.064796 -0.277710 -0.049003
v 1.064796 -0.217461 -0.178939
v 1.064796 -0.100317 -0.261342
v 1.064796 0.042336 -0.274133
v 1.064796 0.172271 -0.213884
v 1.397324 0.254674 -0.096739
v 1.397324 0.207215 0.175849
v 1.397324 0.267464 0.045913
v 1.397324 0.172271 -0.213884
v 1.397324 0.042336 -0.274133
v 1.397324 -0.100316 -0.261342
v 1.397324 -0.217461 -0.178939
v 1.397324 -0.277710 -0.049003
v 1.397324 -0.264920 0.093649
v 1.397324 -0.182517 0.210794
v 1.397324 -0.052582 0.271043
v 1.397324 0.090070 0.258252
v 1.269194 -0.039261 -0.063821
v 1.269194 0.031137 -0.063821
v 1.269194 -0.074460 -0.002855
v 1.269194 -0.039262 0.058112
v 1.269194 0.066335 -0.002855
v 1.269194 0.031136 0.058112
v 1.269194 0.066335 -0.002855
vt 0.777578 0.804665
vt 0.775405 0.799245
vt 0.780221 0.802744
vt 0.774395 0.802352
vt 0.769451 0.799245
vt 0.770461 0.802352
vt 0.764635 0.802744
vt 0.767278 0.804665
vt 0.762795 0.808406
vt 0.766063 0.808406
vt 0.764635 0.814068
vt 0.767278 0.812147
vt 0.769451 0.817567
vt 0.770461 0.814460
vt 0.775405 0.817567
vt 0.774395 0.814460
vt 0.780221 0.814068
vt 0.777578 0.812147
vt 0.782060 0.808406
vt 0.778793 0.808406
vt 0.647543 0.889022
vt 0.615604 0.902777
vt 0.615604 0.889022
vt 0.647543 0.902778
vt 0.615604 0.916533
vt 0.647543 0.916533
vt 0.615604 0.930288
vt 0.647543 0.930288
vt 0.615604 0.944043
vt 0.647543 0.944043
vt 0.615604 0.957798
vt 0.647543 0.957798
vt 0.647543 0.957798
vt 0.615607 0.944043
vt 0.615604 0.957798
vt 0.647543 0.944043
vt 0.615607 0.930288
vt 0.647543 0.930288
vt 0.615607 0.916533
vt 0.647543 0.916533
vt 0.615607 0.902778
vt 0.647543 0.902778
vt 0.615607 0.889023
vt 0.647543 0.889023
vt 0.615607 0.875267
vt 0.647543 0.875267
vt 0.647543 0.875267
vt 0.615607 0.875267
vt 0.785936 0.728509
vt 0.799222 0.751522
vt 0.795662 0.738235
vt 0.772649 0.724949
vt 0.759363 0.728509
vt 0.749636 0.738235
vt 0.746076 0.751522
vt 0.749636 0.764808
vt 0.759363 0.774535
vt 0.772649 0.778095
vt 0.785936 0.774535
vt 0.795662 0.764808
vt 0.798990 0.808441
vt 0.785703 0.785428
vt 0.795430 0.795154
vt 0.795430 0.821728
vt 0.785703 0.831454
vt 0.772417 0.835014
vt 0.759130 0.831454
vt 0.749404 0.821728
vt 0.745844 0.808441
vt 0.749404 0.795154
vt 0.759130 0.785428
vt 0.772417 0.781868
vn -0.6536 -0.6283 -0.4218
vn -0.6537 -0.6283 -0.4219
vn -0.6537 -0.2604 -0.7106
vn -0.6536 -0.2604 -0.7106
vn -0.6537 0.2070 -0.7279
vn -0.6537 0.5954 -0.4672
vn -0.6536 0.7563 -0.0280
vn -0.6537 0.7563 -0.0280
vn -0.6536 0.7563 -0.0281
vn -0.6536 0.6283 0.4218
vn -0.6537 0.6283 0.4219
vn -0.6537 0.2604 0.7106
vn -0.6536 0.2604 0.7106
vn -0.6537 -0.2070 0.7279
vn -0.6537 -0.5954 0.4672
vn -0.6536 -0.5954 0.4672
vn -0.6537 -0.7563 0.0281
vn -0.6537 -0.7563 0.0280
vn -0.6536 -0.7563 0.0281
vn -1.0000 0.0000 0.0000
vn 0.0000 -0.9072 -0.4207
vn 0.0000 -0.5753 -0.8179
vn 0.0000 -0.0893 -0.9960
vn 0.0000 0.4207 -0.9072
vn 0.0000 0.8179 -0.5753
vn 0.0000 0.9960 -0.0893
vn 0.0000 0.9072 0.4207
vn -0.0000 0.5753 0.8179
vn -0.0000 0.0893 0.9960
vn 0.0000 -0.4207 0.9072
vn 0.0000 -0.8179 0.5753
vn 0.0000 -0.9960 0.0893
vn 1.0000 0.0000 0.0000
s 1
f 1/1/1 2/2/1 3/3/1
f 1/1/1 4/4/2 2/2/1
f 4/4/3 5/5/3 2/2/3
f 4/4/3 6/6/4 5/5/3
f 6/6/5 7/7/5 5/5/5
f 6/6/5 8/8/5 7/7/5
f 8/8/6 9/9/6 7/7/6
f 8/8/6 10/10/6 9/9/6
f 10/10/7 11/11/7 9/9/8
f 10/10/7 12/12/9 11/11/7
f 12/12/10 13/13/10 11/11/10
f 12/12/10 14/14/11 13/13/10
f 14/14/12 15/15/12 13/13/12
f 14/14/12 16/16/13 15/15/12
f 16/16/14 17/17/14 15/15/14
f 16/16/14 18/18/14 17/17/14
f 18/18/15 19/19/15 17/17/16
f 18/18/15 20/20/15 19/19/15
f 20/20/17 3/3/17 19/19/18
f 20/20/17 1/1/19 3/3/17
f 20/20/20 4/4/20 1/1/20
f 16/16/20 20/20/20 18/18/20
f 12/12/20 16/16/20 14/14/20
f 8/8/20 12/12/20 10/10/20
f 4/4/20 8/8/20 6/6/20
f 16/16/20 4/4/20 20/20/20
f 12/12/20 4/4/20 16/16/20
f 8/8/20 4/4/20 12/12/20
f 21/21/21 22/22/21 23/23/21
f 21/21/21 24/24/21 22/22/21
f 24/24/22 25/25/22 22/22/22
f 24/24/22 26/26/22 25/25/22
f 26/26/23 27/27/23 25/25/23
f 26/26/23 28/28/23 27/27/23
f 28/28/24 29/29/24 27/27/24
f 28/28/24 30/30/24 29/29/24
f 30/30/25 31/31/25 29/29/25
f 30/30/25 32/32/25 31/31/25
f 33/33/26 34/34/26 35/35/26
f 33/33/26 36/36/26 34/34/26
f 36/36/27 37/37/27 34/34/27
f 36/36/27 38/38/27 37/37/27
f 38/38/28 39/39/28 37/37/28
f 38/38/28 40/40/28 39/39/28
f 40/40/29 41/41/29 39/39/29
f 40/40/29 42/42/29 41/41/29
f 42/42/30 43/43/30 41/41/30
f 42/42/30 44/44/30 43/43/30
f 44/44/31 45/45/31 43/43/31
f 44/44/31 46/46/31 45/45/31
f 47/47/32 23/23/32 48/48/32
f 47/47/32 21/21/32 23/23/32
f 49/49/33 50/50/33 51/51/33
f 52/52/33 50/50/33 49/49/33
f 53/53/33 50/50/33 52/52/33
f 54/54/33 50/50/33 53/53/33
f 55/55/33 50/50/33 54/54/33
f 56/56/33 50/50/33 55/55/33
f 57/57/33 50/50/33 56/56/33
f 58/58/33 50/50/33 57/57/33
f 59/59/33 50/50/33 58/58/33
f 60/60/33 50/50/33 59/59/33
f 61/61/20 62/62/20 63/63/20
f 64/64/20 62/62/20 61/61/20
f 65/65/20 62/62/20 64/64/20
f 66/66/20 62/62/20 65/65/20
f 67/67/20 62/62/20 66/66/20
f 68/68/20 62/62/20 67/67/20
f 69/69/20 62/62/20 68/68/20
f 70/70/20 62/62/20 69/69/20
f 71/71/20 62/62/20 70/70/20
f 72/72/20 62/62/20 71/71/20
l 73 74
l 75 73
l 76 75
l 74 77
l 78 76
l 78 79
