# Blender v2.92.0 OBJ File: ''
# www.blender.org
o Walec_Walec.001
v 0.000000 0.014903 0.750000
v 0.002907 0.014616 0.750000
v 0.000000 0.100000 -0.750000
v 0.000000 0.050145 0.633877
v 0.019509 0.098079 -0.750000
v 0.009783 0.049182 0.633877
v 0.038268 0.092388 -0.750000
v 0.019190 0.046328 0.633877
v 0.055557 0.083147 -0.750000
v 0.027859 0.041694 0.633877
v 0.070711 0.070711 -0.750000
v 0.035458 0.035458 0.633877
v 0.083147 0.055557 -0.750000
v 0.041694 0.027859 0.633877
v 0.092388 0.038268 -0.750000
v 0.046328 0.019190 0.633877
v 0.098079 0.019509 -0.750000
v 0.049182 0.009783 0.633877
v 0.100000 0.000000 -0.750000
v 0.050145 -0.000000 0.633877
v 0.098079 -0.019509 -0.750000
v 0.049182 -0.009783 0.633877
v 0.092388 -0.038268 -0.750000
v 0.046328 -0.019190 0.633877
v 0.083147 -0.055557 -0.750000
v 0.041694 -0.027859 0.633877
v 0.070711 -0.070711 -0.750000
v 0.035458 -0.035458 0.633877
v 0.055557 -0.083147 -0.750000
v 0.027859 -0.041694 0.633877
v 0.038268 -0.092388 -0.750000
v 0.019190 -0.046328 0.633877
v 0.019509 -0.098079 -0.750000
v 0.009783 -0.049182 0.633877
v -0.000000 -0.100000 -0.750000
v -0.000000 -0.050145 0.633877
v -0.019509 -0.098078 -0.750000
v -0.009783 -0.049182 0.633877
v -0.038268 -0.092388 -0.750000
v -0.019190 -0.046328 0.633877
v -0.055557 -0.083147 -0.750000
v -0.027859 -0.041694 0.633877
v -0.070711 -0.070711 -0.750000
v -0.035458 -0.035458 0.633877
v -0.083147 -0.055557 -0.750000
v -0.041694 -0.027859 0.633877
v -0.092388 -0.038268 -0.750000
v -0.046328 -0.019190 0.633877
v -0.098079 -0.019509 -0.750000
v -0.049182 -0.009783 0.633877
v -0.100000 0.000000 -0.750000
v -0.050145 0.000000 0.633877
v -0.098079 0.019509 -0.750000
v -0.049182 0.009783 0.633877
v -0.092388 0.038268 -0.750000
v -0.046328 0.019190 0.633877
v -0.083147 0.055557 -0.750000
v -0.041694 0.027859 0.633877
v -0.070711 0.070711 -0.750000
v -0.035458 0.035458 0.633877
v -0.055557 0.083147 -0.750000
v -0.027859 0.041694 0.633877
v -0.038268 0.092388 -0.750000
v -0.019190 0.046328 0.633877
v -0.019509 0.098079 -0.750000
v -0.009783 0.049182 0.633877
v 0.005703 0.013768 0.750000
v 0.008279 0.012391 0.750000
v 0.010538 0.010538 0.750000
v 0.012391 0.008279 0.750000
v 0.013768 0.005703 0.750000
v 0.014616 0.002907 0.750000
v 0.014903 -0.000000 0.750000
v 0.014616 -0.002907 0.750000
v 0.013768 -0.005703 0.750000
v 0.012391 -0.008279 0.750000
v 0.010538 -0.010538 0.750000
v 0.008279 -0.012391 0.750000
v 0.005703 -0.013768 0.750000
v 0.002907 -0.014616 0.750000
v 0.000000 -0.014903 0.750000
v -0.002907 -0.014616 0.750000
v -0.005703 -0.013768 0.750000
v -0.008279 -0.012391 0.750000
v -0.010538 -0.010538 0.750000
v -0.012391 -0.008279 0.750000
v -0.013768 -0.005703 0.750000
v -0.014616 -0.002907 0.750000
v -0.014903 0.000000 0.750000
v -0.014616 0.002907 0.750000
v -0.013768 0.005703 0.750000
v -0.012391 0.008279 0.750000
v -0.010538 0.010538 0.750000
v -0.008279 0.012391 0.750000
v -0.005703 0.013768 0.750000
v -0.002907 0.014616 0.750000
v 0.000000 0.100000 0.413354
v 0.019509 0.098079 0.413354
v 0.038268 0.092388 0.413354
v 0.055557 0.083147 0.413354
v 0.070711 0.070711 0.413354
v 0.083147 0.055557 0.413354
v 0.092388 0.038268 0.413354
v 0.098079 0.019509 0.413354
v 0.100000 0.000000 0.413354
v 0.098079 -0.019509 0.413354
v 0.092388 -0.038268 0.413354
v 0.083147 -0.055557 0.413354
v 0.070711 -0.070711 0.413354
v 0.055557 -0.083147 0.413354
v 0.038268 -0.092388 0.413354
v 0.019509 -0.098079 0.413354
v -0.000000 -0.100000 0.413354
v -0.019509 -0.098079 0.413354
v -0.038268 -0.092388 0.413354
v -0.055557 -0.083147 0.413354
v -0.070711 -0.070711 0.413354
v -0.083147 -0.055557 0.413354
v -0.092388 -0.038268 0.413354
v -0.098079 -0.019509 0.413354
v -0.100000 0.000000 0.413354
v -0.098079 0.019509 0.413354
v -0.092388 0.038268 0.413354
v -0.083147 0.055557 0.413354
v -0.070711 0.070711 0.413354
v -0.055557 0.083147 0.413354
v -0.038268 0.092388 0.413354
v -0.019509 0.098079 0.413354
v 0.000000 0.050145 0.605878
v 0.009783 0.049182 0.605878
v 0.019190 0.046328 0.605878
v 0.027859 0.041694 0.605878
v 0.035458 0.035458 0.605878
v 0.041694 0.027859 0.605878
v 0.046328 0.019190 0.605878
v 0.049182 0.009783 0.605878
v 0.050145 -0.000000 0.605878
v 0.049182 -0.009783 0.605878
v 0.046328 -0.019190 0.605878
v 0.041694 -0.027859 0.605878
v 0.035458 -0.035458 0.605878
v 0.027859 -0.041694 0.605878
v 0.019190 -0.046328 0.605878
v 0.009783 -0.049182 0.605878
v -0.000000 -0.050145 0.605878
v -0.009783 -0.049182 0.605878
v -0.019190 -0.046328 0.605878
v -0.027859 -0.041694 0.605878
v -0.035458 -0.035458 0.605878
v -0.041694 -0.027859 0.605878
v -0.046328 -0.019190 0.605878
v -0.049182 -0.009783 0.605878
v -0.050145 0.000000 0.605878
v -0.049182 0.009783 0.605878
v -0.046328 0.019190 0.605878
v -0.041694 0.027859 0.605878
v -0.035458 0.035458 0.605878
v -0.027859 0.041694 0.605878
v -0.019190 0.046328 0.605878
v -0.009783 0.049182 0.605878
vt 0.937500 0.500000
vt 0.906250 0.750000
vt 0.906250 0.500000
vt 0.562500 1.000000
vt 0.531250 1.000000
vt 0.531250 1.000000
vt 1.000000 0.875000
vt 0.968750 1.000000
vt 0.968750 0.875000
vt 0.968750 0.750000
vt 0.968750 0.500000
vt 0.312500 1.000000
vt 0.281250 1.000000
vt 0.281250 1.000000
vt 0.937500 0.875000
vt 0.875000 0.750000
vt 0.843750 0.500000
vt 0.875000 0.500000
vt 0.062500 1.000000
vt 0.031250 1.000000
vt 0.031250 1.000000
vt 0.937500 1.000000
vt 0.906250 0.875000
vt 0.843750 0.750000
vt 0.812500 0.500000
vt 0.906250 1.000000
vt 0.875000 1.000000
vt 0.875000 1.000000
vt 0.875000 0.875000
vt 0.781250 0.750000
vt 0.781250 0.500000
vt 0.656250 1.000000
vt 0.625000 1.000000
vt 0.625000 1.000000
vt 0.843750 0.875000
vt 0.750000 0.750000
vt 0.750000 0.500000
vt 0.406250 1.000000
vt 0.375000 1.000000
vt 0.375000 1.000000
vt 0.812500 1.000000
vt 0.812500 0.875000
vt 0.718750 0.500000
vt 0.156250 1.000000
vt 0.125000 1.000000
vt 0.125000 1.000000
vt 0.781250 0.875000
vt 0.718750 0.750000
vt 0.687500 0.500000
vt 0.750000 1.000000
vt 0.718750 1.000000
vt 0.718750 1.000000
vt 0.750000 0.875000
vt 0.687500 0.750000
vt 0.656250 0.500000
vt 0.468750 1.000000
vt 0.500000 1.000000
vt 0.468750 1.000000
vt 0.718750 0.875000
vt 0.656250 0.750000
vt 0.625000 0.500000
vt 0.250000 1.000000
vt 0.218750 1.000000
vt 0.218750 1.000000
vt 0.687500 0.875000
vt 0.625000 0.750000
vt 0.593750 0.500000
vt 1.000000 1.000000
vt 0.968750 1.000000
vt 0.687500 1.000000
vt 0.656250 0.875000
vt 0.593750 0.750000
vt 0.562500 0.500000
vt 0.843750 1.000000
vt 0.812500 1.000000
vt 0.625000 0.875000
vt 0.562500 0.750000
vt 0.531250 0.500000
vt 0.593750 1.000000
vt 0.562500 1.000000
vt 0.593750 0.875000
vt 0.531250 0.750000
vt 0.500000 0.500000
vt 0.343750 1.000000
vt 0.312500 1.000000
vt 0.562500 0.875000
vt 0.500000 0.750000
vt 0.468750 0.500000
vt 0.093750 1.000000
vt 0.062500 1.000000
vt 0.531250 0.875000
vt 0.468750 0.750000
vt 0.437500 0.500000
vt 0.906250 1.000000
vt 0.500000 0.875000
vt 0.437500 0.750000
vt 0.406250 0.500000
vt 0.656250 1.000000
vt 0.500000 1.000000
vt 0.468750 0.875000
vt 0.406250 0.750000
vt 0.375000 0.500000
vt 0.437500 1.000000
vt 0.406250 1.000000
vt 0.437500 0.875000
vt 0.375000 0.750000
vt 0.343750 0.500000
vt 0.187500 1.000000
vt 0.156250 1.000000
vt 0.406250 0.875000
vt 0.343750 0.750000
vt 0.312500 0.500000
vt 0.781250 1.000000
vt 0.750000 1.000000
vt 0.375000 0.875000
vt 0.312500 0.750000
vt 0.281250 0.500000
vt 0.343750 0.875000
vt 0.281250 0.750000
vt 0.250000 0.500000
vt 0.250000 1.000000
vt 0.312500 0.875000
vt 0.250000 0.750000
vt 0.218750 0.500000
vt 0.843750 1.000000
vt 0.281250 0.875000
vt 0.218750 0.750000
vt 0.187500 0.500000
vt 0.593750 1.000000
vt 0.250000 0.875000
vt 0.187500 0.750000
vt 0.156250 0.500000
vt 0.343750 1.000000
vt 0.218750 0.875000
vt 0.156250 0.750000
vt 0.125000 0.500000
vt 0.093750 1.000000
vt 0.187500 0.875000
vt 0.125000 0.750000
vt 0.093750 0.500000
vt 0.000000 1.000000
vt 0.000000 1.000000
vt 0.156250 0.875000
vt 0.093750 0.750000
vt 0.062500 0.500000
vt 0.937500 1.000000
vt 0.125000 0.875000
vt 0.031250 0.750000
vt 0.031250 0.500000
vt 0.687500 1.000000
vt 0.093750 0.875000
vt 0.000000 0.500000
vt 0.437500 1.000000
vt 0.062500 0.875000
vt 0.187500 1.000000
vt 0.158156 0.028269
vt 0.471731 0.158156
vt 0.341844 0.471731
vt 0.031250 0.875000
vt 0.781250 1.000000
vt 0.000000 0.875000
vt 0.796822 0.014612
vt 0.514611 0.203179
vt 0.703179 0.485389
vt 1.000000 0.750000
vt 1.000000 0.500000
vt 0.000000 0.750000
vt 0.062500 0.750000
vt 0.812500 0.750000
vt 0.937500 0.750000
vt 1.000000 1.000000
vt 0.296822 0.485388
vt 0.250000 0.490000
vt 0.203179 0.485389
vt 0.158156 0.471731
vt 0.116663 0.449553
vt 0.080295 0.419706
vt 0.050447 0.383337
vt 0.028269 0.341844
vt 0.014612 0.296822
vt 0.028269 0.158156
vt 0.010000 0.250000
vt 0.014612 0.203179
vt 0.050447 0.116663
vt 0.080294 0.080294
vt 0.116663 0.050447
vt 0.203178 0.014612
vt 0.250000 0.010000
vt 0.296822 0.014612
vt 0.341844 0.028269
vt 0.383337 0.050447
vt 0.419706 0.080294
vt 0.449553 0.116663
vt 0.485388 0.203178
vt 0.490000 0.250000
vt 0.485388 0.296822
vt 0.471731 0.341844
vt 0.449553 0.383337
vt 0.419706 0.419706
vt 0.383337 0.449553
vt 0.750000 0.490000
vt 0.796822 0.485388
vt 0.841844 0.471731
vt 0.883337 0.449553
vt 0.919706 0.419706
vt 0.949553 0.383337
vt 0.971731 0.341844
vt 0.985388 0.296822
vt 0.990000 0.250000
vt 0.985388 0.203178
vt 0.971731 0.158156
vt 0.949553 0.116663
vt 0.919706 0.080294
vt 0.883337 0.050447
vt 0.841844 0.028269
vt 0.750000 0.010000
vt 0.703178 0.014612
vt 0.658156 0.028269
vt 0.616663 0.050447
vt 0.580294 0.080294
vt 0.550447 0.116663
vt 0.528269 0.158156
vt 0.510000 0.250000
vt 0.514612 0.296822
vt 0.528269 0.341844
vt 0.550447 0.383337
vt 0.580295 0.419706
vt 0.616663 0.449553
vt 0.658156 0.471731
vn 0.4714 0.8819 0.0000
vn 0.2779 -0.9161 0.2891
vn 0.0980 0.9952 0.0000
vn 0.2903 0.9569 0.0000
vn -0.9161 -0.2779 0.2891
vn 0.7730 0.6344 0.0000
vn -0.2779 0.9161 0.2891
vn 0.8819 0.4714 0.0000
vn 0.6073 0.7400 0.2891
vn 0.6344 0.7730 0.0000
vn 0.9569 0.2903 0.0000
vn 0.7400 -0.6073 0.2891
vn 0.9952 0.0980 0.0000
vn -0.6073 -0.7400 0.2891
vn 0.9952 -0.0980 -0.0000
vn -0.7400 0.6073 0.2891
vn 0.9569 -0.2903 -0.0000
vn 0.9527 -0.0938 0.2891
vn 0.8819 -0.4714 -0.0000
vn -0.0938 -0.9527 0.2891
vn 0.7730 -0.6344 -0.0000
vn -0.9527 0.0938 0.2891
vn 0.6344 -0.7730 -0.0000
vn 0.0938 0.9527 0.2891
vn 0.4714 -0.8819 -0.0000
vn 0.8443 0.4513 0.2891
vn 0.2903 -0.9569 -0.0000
vn 0.4513 -0.8443 0.2891
vn 0.0980 -0.9952 -0.0000
vn -0.8443 -0.4513 0.2891
vn -0.0980 -0.9952 -0.0000
vn -0.4513 0.8443 0.2891
vn -0.2903 -0.9569 -0.0000
vn 0.4513 0.8443 0.2891
vn -0.4714 -0.8819 -0.0000
vn 0.8443 -0.4513 0.2891
vn -0.6344 -0.7730 -0.0000
vn -0.4513 -0.8443 0.2891
vn -0.7730 -0.6344 -0.0000
vn -0.8443 0.4513 0.2891
vn -0.8819 -0.4714 -0.0000
vn 0.9527 0.0938 0.2891
vn -0.9569 -0.2903 -0.0000
vn 0.0938 -0.9527 0.2891
vn -0.9952 -0.0980 -0.0000
vn -0.9527 -0.0938 0.2891
vn -0.9952 0.0980 0.0000
vn 0.7400 0.6073 0.2891
vn -0.9569 0.2903 0.0000
vn 0.6073 -0.7400 0.2891
vn -0.8819 0.4714 0.0000
vn -0.7400 -0.6073 0.2891
vn -0.7730 0.6344 0.0000
vn -0.6073 0.7400 0.2891
vn -0.6344 0.7730 0.0000
vn -0.0938 0.9527 0.2891
vn -0.4714 0.8819 0.0000
vn 0.2779 0.9161 0.2891
vn -0.2903 0.9569 0.0000
vn 0.9161 -0.2779 0.2891
vn -0.0980 0.9952 0.0000
vn -0.2779 -0.9161 0.2891
vn -0.9161 0.2779 0.2891
vn 0.0000 0.0000 1.0000
vn 0.9161 0.2779 0.2891
vn -0.0000 0.0000 -1.0000
vn -0.0949 0.9637 0.2496
vn -0.2811 0.9267 0.2496
vn -0.4565 0.8540 0.2496
vn -0.6143 0.7486 0.2496
vn -0.7486 0.6143 0.2496
vn -0.8540 0.4565 0.2496
vn -0.9267 0.2811 0.2496
vn -0.9637 0.0949 0.2496
vn -0.9637 -0.0949 0.2496
vn -0.9267 -0.2811 0.2496
vn -0.8540 -0.4565 0.2496
vn -0.7486 -0.6143 0.2496
vn -0.6143 -0.7486 0.2496
vn -0.4565 -0.8540 0.2496
vn -0.2811 -0.9267 0.2496
vn -0.0949 -0.9637 0.2496
vn 0.0949 -0.9637 0.2496
vn 0.2811 -0.9267 0.2496
vn 0.4565 -0.8540 0.2496
vn 0.6143 -0.7486 0.2496
vn 0.7486 -0.6143 0.2496
vn 0.8540 -0.4565 0.2496
vn 0.9267 -0.2811 0.2496
vn 0.9637 -0.0949 0.2496
vn 0.9637 0.0949 0.2496
vn 0.9267 0.2811 0.2496
vn 0.8540 0.4565 0.2496
vn 0.7486 0.6143 0.2496
vn 0.6143 0.7486 0.2496
vn 0.4565 0.8540 0.2496
vn 0.2811 0.9267 0.2496
vn 0.0949 0.9637 0.2496
vn -0.0003 0.0000 1.0000
vn 0.0003 0.0000 1.0000
s off
f 7/1/1 100/2/1 9/3/1
f 32/4/2 80/5/2 34/6/2
f 129/7/3 6/8/3 130/9/3
f 98/10/4 7/1/4 5/11/4
f 48/12/5 88/13/5 50/14/5
f 6/8/4 131/15/4 130/9/4
f 101/16/6 13/17/6 11/18/6
f 64/19/7 96/20/7 66/21/7
f 8/22/1 132/23/1 131/15/1
f 102/24/8 15/25/8 13/17/8
f 10/26/9 69/27/9 12/28/9
f 10/26/10 133/29/10 132/23/10
f 15/25/11 104/30/11 17/31/11
f 26/32/12 77/33/12 28/34/12
f 12/28/6 134/35/6 133/29/6
f 17/31/13 105/36/13 19/37/13
f 42/38/14 85/39/14 44/40/14
f 134/35/8 16/41/8 135/42/8
f 105/36/15 21/43/15 19/37/15
f 58/44/16 93/45/16 60/46/16
f 16/41/11 136/47/11 135/42/11
f 106/48/17 23/49/17 21/43/17
f 20/50/18 74/51/18 22/52/18
f 136/47/13 20/50/13 137/53/13
f 107/54/19 25/55/19 23/49/19
f 38/56/20 81/57/20 82/58/20
f 137/53/15 22/52/15 138/59/15
f 108/60/21 27/61/21 25/55/21
f 52/62/22 90/63/22 54/64/22
f 22/52/17 139/65/17 138/59/17
f 109/66/23 29/67/23 27/61/23
f 4/68/24 2/69/24 6/8/24
f 24/70/19 140/71/19 139/65/19
f 110/72/25 31/73/25 29/67/25
f 14/74/26 71/75/26 16/41/26
f 26/32/21 141/76/21 140/71/21
f 111/77/27 33/78/27 31/73/27
f 30/79/28 79/80/28 32/4/28
f 28/34/23 142/81/23 141/76/23
f 112/82/29 35/83/29 33/78/29
f 46/84/30 87/85/30 48/12/30
f 30/79/25 143/86/25 142/81/25
f 113/87/31 37/88/31 35/83/31
f 62/89/32 95/90/32 64/19/32
f 32/4/27 144/91/27 143/86/27
f 114/92/33 39/93/33 37/88/33
f 8/22/34 68/94/34 10/26/34
f 34/6/29 145/95/29 144/91/29
f 115/96/35 41/97/35 39/93/35
f 24/70/36 76/98/36 26/32/36
f 36/99/31 146/100/31 145/95/31
f 116/101/37 43/102/37 41/97/37
f 40/103/38 84/104/38 42/38/38
f 38/56/33 147/105/33 146/100/33
f 117/106/39 45/107/39 43/102/39
f 56/108/40 92/109/40 58/44/40
f 147/105/35 42/38/35 148/110/35
f 118/111/41 47/112/41 45/107/41
f 18/113/42 73/114/42 20/50/42
f 42/38/37 149/115/37 148/110/37
f 119/116/43 49/117/43 47/112/43
f 36/99/44 80/5/44 81/57/44
f 149/115/39 46/84/39 150/118/39
f 120/119/45 51/120/45 49/117/45
f 50/14/46 89/121/46 52/62/46
f 150/118/41 48/12/41 151/122/41
f 121/123/47 53/124/47 51/120/47
f 12/28/48 70/125/48 14/74/48
f 48/12/43 152/126/43 151/122/43
f 122/127/49 55/128/49 53/124/49
f 28/34/50 78/129/50 30/79/50
f 152/126/45 52/62/45 153/130/45
f 123/131/51 57/132/51 55/128/51
f 44/40/52 86/133/52 46/84/52
f 153/130/47 54/64/47 154/134/47
f 124/135/53 59/136/53 57/132/53
f 60/46/54 94/137/54 62/89/54
f 154/134/49 56/108/49 155/138/49
f 125/139/55 61/140/55 59/136/55
f 66/21/56 1/141/56 4/142/56
f 155/138/51 58/44/51 156/143/51
f 126/144/57 63/145/57 61/140/57
f 6/8/58 67/146/58 8/22/58
f 58/44/53 157/147/53 156/143/53
f 63/145/59 128/148/59 65/149/59
f 22/52/60 75/150/60 24/70/60
f 60/46/55 158/151/55 157/147/55
f 128/148/61 3/152/61 65/149/61
f 38/56/62 83/153/62 40/103/62
f 158/151/57 64/19/57 159/154/57
f 54/64/63 91/155/63 56/108/63
f 83/156/64 75/157/64 67/158/64
f 159/154/59 66/21/59 160/159/59
f 100/2/10 11/18/10 9/3/10
f 16/41/65 72/160/65 18/113/65
f 160/159/61 4/142/61 129/161/61
f 33/162/66 49/163/66 65/164/66
f 97/165/3 5/11/3 3/166/3
f 160/159/67 97/167/67 128/148/67
f 127/168/68 160/159/68 128/148/68
f 158/151/69 127/168/69 126/144/69
f 157/147/70 126/144/70 125/139/70
f 156/143/71 125/139/71 124/135/71
f 155/138/72 124/135/72 123/131/72
f 154/134/73 123/131/73 122/127/73
f 153/130/74 122/127/74 121/123/74
f 152/126/75 121/123/75 120/119/75
f 151/122/76 120/119/76 119/116/76
f 118/111/77 151/122/77 119/116/77
f 149/115/78 118/111/78 117/106/78
f 148/110/79 117/106/79 116/101/79
f 147/105/80 116/101/80 115/96/80
f 146/100/81 115/96/81 114/92/81
f 145/95/82 114/92/82 113/87/82
f 112/82/83 145/95/83 113/87/83
f 111/77/84 144/91/84 112/82/84
f 142/81/85 111/77/85 110/72/85
f 141/76/86 110/72/86 109/66/86
f 140/71/87 109/66/87 108/60/87
f 139/65/88 108/60/88 107/54/88
f 138/59/89 107/54/89 106/48/89
f 137/53/90 106/48/90 105/36/90
f 136/47/91 105/36/91 104/30/91
f 135/42/92 104/30/92 103/169/92
f 134/35/93 103/169/93 102/24/93
f 133/29/94 102/24/94 101/16/94
f 132/23/95 101/16/95 100/2/95
f 131/15/96 100/2/96 99/170/96
f 98/10/97 131/15/97 99/170/97
f 129/7/98 98/10/98 97/165/98
f 7/1/1 99/170/1 100/2/1
f 32/4/2 79/80/2 80/5/2
f 129/7/3 4/68/3 6/8/3
f 98/10/4 99/170/4 7/1/4
f 48/12/5 87/85/5 88/13/5
f 6/8/4 8/22/4 131/15/4
f 101/16/6 102/24/6 13/17/6
f 64/19/7 95/90/7 96/20/7
f 8/22/1 10/26/1 132/23/1
f 102/24/8 103/169/8 15/25/8
f 10/26/9 68/94/9 69/27/9
f 10/26/10 12/28/10 133/29/10
f 15/25/11 103/169/11 104/30/11
f 26/32/12 76/98/12 77/33/12
f 12/28/6 14/74/6 134/35/6
f 17/31/13 104/30/13 105/36/13
f 42/38/14 84/104/14 85/39/14
f 134/35/8 14/74/8 16/41/8
f 105/36/15 106/48/15 21/43/15
f 58/44/16 92/109/16 93/45/16
f 16/41/11 18/113/11 136/47/11
f 106/48/17 107/54/17 23/49/17
f 20/50/18 73/114/18 74/51/18
f 136/47/13 18/113/13 20/50/13
f 107/54/19 108/60/19 25/55/19
f 38/56/20 36/99/20 81/57/20
f 137/53/15 20/50/15 22/52/15
f 108/60/21 109/66/21 27/61/21
f 52/62/22 89/121/22 90/63/22
f 22/52/17 24/70/17 139/65/17
f 109/66/23 110/72/23 29/67/23
f 4/68/24 1/171/24 2/69/24
f 24/70/19 26/32/19 140/71/19
f 110/72/25 111/77/25 31/73/25
f 14/74/26 70/125/26 71/75/26
f 26/32/21 28/34/21 141/76/21
f 111/77/27 112/82/27 33/78/27
f 30/79/28 78/129/28 79/80/28
f 28/34/23 30/79/23 142/81/23
f 112/82/29 113/87/29 35/83/29
f 46/84/30 86/133/30 87/85/30
f 30/79/25 32/4/25 143/86/25
f 113/87/31 114/92/31 37/88/31
f 62/89/32 94/137/32 95/90/32
f 32/4/27 34/6/27 144/91/27
f 114/92/33 115/96/33 39/93/33
f 8/22/34 67/146/34 68/94/34
f 34/6/29 36/99/29 145/95/29
f 115/96/35 116/101/35 41/97/35
f 24/70/36 75/150/36 76/98/36
f 36/99/31 38/56/31 146/100/31
f 116/101/37 117/106/37 43/102/37
f 40/103/38 83/153/38 84/104/38
f 38/56/33 40/103/33 147/105/33
f 117/106/39 118/111/39 45/107/39
f 56/108/40 91/155/40 92/109/40
f 147/105/35 40/103/35 42/38/35
f 118/111/41 119/116/41 47/112/41
f 18/113/42 72/160/42 73/114/42
f 42/38/37 44/40/37 149/115/37
f 119/116/43 120/119/43 49/117/43
f 36/99/44 34/6/44 80/5/44
f 149/115/39 44/40/39 46/84/39
f 120/119/45 121/123/45 51/120/45
f 50/14/46 88/13/46 89/121/46
f 150/118/41 46/84/41 48/12/41
f 121/123/47 122/127/47 53/124/47
f 12/28/48 69/27/48 70/125/48
f 48/12/43 50/14/43 152/126/43
f 122/127/49 123/131/49 55/128/49
f 28/34/50 77/33/50 78/129/50
f 152/126/45 50/14/45 52/62/45
f 123/131/51 124/135/51 57/132/51
f 44/40/52 85/39/52 86/133/52
f 153/130/47 52/62/47 54/64/47
f 124/135/53 125/139/53 59/136/53
f 60/46/54 93/45/54 94/137/54
f 154/134/49 54/64/49 56/108/49
f 125/139/55 126/144/55 61/140/55
f 66/21/56 96/20/56 1/141/56
f 155/138/51 56/108/51 58/44/51
f 126/144/57 127/168/57 63/145/57
f 6/8/58 2/69/58 67/146/58
f 58/44/53 60/46/53 157/147/53
f 63/145/59 127/168/59 128/148/59
f 22/52/60 74/51/60 75/150/60
f 60/46/55 62/89/55 158/151/55
f 128/148/61 97/167/61 3/152/61
f 38/56/62 82/58/62 83/153/62
f 158/151/57 62/89/57 64/19/57
f 54/64/63 90/63/63 91/155/63
f 67/158/64 2/172/64 1/173/64
f 1/173/64 96/174/64 67/158/64
f 96/174/64 95/175/64 67/158/64
f 95/175/64 94/176/64 93/177/64
f 93/177/64 92/178/64 91/179/64
f 91/179/64 90/180/64 87/181/64
f 90/180/64 89/182/64 87/181/64
f 89/182/99 88/183/99 87/181/99
f 87/181/64 86/184/64 83/156/64
f 86/184/64 85/185/64 83/156/64
f 85/185/64 84/186/64 83/156/64
f 83/156/64 82/187/64 81/188/64
f 81/188/64 80/189/64 83/156/64
f 80/189/64 79/190/64 83/156/64
f 79/190/64 78/191/64 77/192/64
f 77/192/64 76/193/64 75/157/64
f 75/157/100 74/194/100 73/195/100
f 73/195/99 72/196/99 71/197/99
f 71/197/64 70/198/64 67/158/64
f 70/198/64 69/199/64 67/158/64
f 69/199/64 68/200/64 67/158/64
f 95/175/64 93/177/64 67/158/64
f 93/177/64 91/179/64 67/158/64
f 79/190/64 77/192/64 83/156/64
f 77/192/64 75/157/64 83/156/64
f 75/157/64 73/195/64 67/158/64
f 73/195/64 71/197/64 67/158/64
f 91/179/64 87/181/64 67/158/64
f 87/181/64 83/156/64 67/158/64
f 159/154/59 64/19/59 66/21/59
f 100/2/10 101/16/10 11/18/10
f 16/41/65 71/75/65 72/160/65
f 160/159/61 66/21/61 4/142/61
f 65/164/66 3/201/66 5/202/66
f 5/202/66 7/203/66 9/204/66
f 9/204/66 11/205/66 13/206/66
f 13/206/66 15/207/66 9/204/66
f 15/207/66 17/208/66 9/204/66
f 17/208/66 19/209/66 21/210/66
f 21/210/66 23/211/66 17/208/66
f 23/211/66 25/212/66 17/208/66
f 25/212/66 27/213/66 29/214/66
f 29/214/66 31/215/66 33/162/66
f 33/162/66 35/216/66 37/217/66
f 37/217/66 39/218/66 41/219/66
f 41/219/66 43/220/66 45/221/66
f 45/221/66 47/222/66 49/163/66
f 49/163/66 51/223/66 53/224/66
f 53/224/66 55/225/66 49/163/66
f 55/225/66 57/226/66 49/163/66
f 57/226/66 59/227/66 61/228/66
f 61/228/66 63/229/66 57/226/66
f 63/229/66 65/164/66 57/226/66
f 65/164/66 5/202/66 9/204/66
f 25/212/66 29/214/66 33/162/66
f 33/162/66 37/217/66 41/219/66
f 41/219/66 45/221/66 49/163/66
f 65/164/66 9/204/66 17/208/66
f 17/208/66 25/212/66 65/164/66
f 25/212/66 33/162/66 65/164/66
f 33/162/66 41/219/66 49/163/66
f 49/163/66 57/226/66 65/164/66
f 97/165/3 98/10/3 5/11/3
f 160/159/67 129/161/67 97/167/67
f 127/168/68 159/154/68 160/159/68
f 158/151/69 159/154/69 127/168/69
f 157/147/70 158/151/70 126/144/70
f 156/143/71 157/147/71 125/139/71
f 155/138/72 156/143/72 124/135/72
f 154/134/73 155/138/73 123/131/73
f 153/130/74 154/134/74 122/127/74
f 152/126/75 153/130/75 121/123/75
f 151/122/76 152/126/76 120/119/76
f 118/111/77 150/118/77 151/122/77
f 149/115/78 150/118/78 118/111/78
f 148/110/79 149/115/79 117/106/79
f 147/105/80 148/110/80 116/101/80
f 146/100/81 147/105/81 115/96/81
f 145/95/82 146/100/82 114/92/82
f 112/82/83 144/91/83 145/95/83
f 111/77/84 143/86/84 144/91/84
f 142/81/85 143/86/85 111/77/85
f 141/76/86 142/81/86 110/72/86
f 140/71/87 141/76/87 109/66/87
f 139/65/88 140/71/88 108/60/88
f 138/59/89 139/65/89 107/54/89
f 137/53/90 138/59/90 106/48/90
f 136/47/91 137/53/91 105/36/91
f 135/42/92 136/47/92 104/30/92
f 134/35/93 135/42/93 103/169/93
f 133/29/94 134/35/94 102/24/94
f 132/23/95 133/29/95 101/16/95
f 131/15/96 132/23/96 100/2/96
f 98/10/97 130/9/97 131/15/97
f 129/7/98 130/9/98 98/10/98
