# Blender v2.92.0 OBJ File: 'untitled.blend'
# www.blender.org
o Kostka
v -4.001734 -0.113760 2.014594
v -3.613922 2.783964 1.603606
v -4.001734 -0.113760 -1.985406
v -3.383724 2.884761 -1.575438
v 3.998266 -0.113760 2.014594
v 3.998266 1.886240 1.012064
v 3.998266 -0.113760 -1.985406
v 4.003478 1.874352 -1.051093
v 4.003478 1.874352 -1.051093
vt 0.625000 0.000000
vt 0.375000 0.250000
vt 0.375000 0.000000
vt 0.624876 0.520840
vt 0.375000 0.500000
vt 0.625000 0.750000
vt 0.375000 0.750000
vt 0.375000 1.000000
vt 0.125000 0.750000
vt 0.125000 0.500000
vt 0.875000 0.500000
vt 0.625000 0.250000
vt 0.625000 1.000000
vt 0.875000 0.750000
vn -0.9912 0.1327 0.0000
vn 0.0000 0.4253 -0.9050
vn 1.0000 -0.0000 0.0000
vn 0.0000 0.4481 0.8940
vn 0.0000 -1.0000 0.0000
vn 0.1359 0.9907 -0.0054
vn -0.9756 0.2098 -0.0640
vn 0.0863 0.1175 -0.9893
vn 1.0000 -0.0038 0.0025
vn 0.0918 0.1278 0.9875
vn 0.1201 0.9919 0.0401
s off
f 2/1/1 3/2/1 1/3/1
f 3/2/2 8/4/2 7/5/2
f 7/5/3 6/6/3 5/7/3
f 6/6/4 1/8/4 5/7/4
f 7/5/5 1/9/5 3/10/5
f 4/11/6 6/6/6 8/4/6
f 2/1/7 4/12/7 3/2/7
f 3/2/8 4/12/8 8/4/8
f 7/5/9 8/4/9 6/6/9
f 6/6/10 2/13/10 1/8/10
f 7/5/5 5/7/5 1/9/5
f 4/11/11 2/14/11 6/6/11
o Walec
v 3.056453 1.058596 -0.251578
v 13.042126 1.978735 -0.354317
v 3.082689 0.889537 -0.445789
v 13.125643 1.740682 -0.296495
v 3.116929 0.646681 -0.528469
v 13.181160 1.559210 -0.120504
v 3.149997 0.395101 -0.477465
v 13.193802 1.482944 0.126500
v 3.173035 0.202209 -0.306441
v 13.160184 1.532318 0.378332
v 3.179867 0.119688 -0.061225
v 13.089312 1.694104 0.567514
v 3.168665 0.169651 0.192478
v 13.000175 1.924950 0.643354
v 3.142429 0.338710 0.386690
v 12.916659 2.163003 0.585532
v 3.108190 0.581565 0.469370
v 12.861141 2.344475 0.409541
v 3.075121 0.833145 0.418365
v 12.848497 2.420742 0.162537
v 3.052084 1.026038 0.247342
v 12.882116 2.371368 -0.089294
v 3.045251 1.108559 0.002126
v 12.952990 2.209582 -0.278476
v 11.679893 2.625257 -0.296875
v 11.729486 2.305690 -0.663987
v 11.794208 1.846626 -0.820276
v 11.856716 1.371072 -0.723863
v 11.900263 1.006452 -0.400582
v 11.913179 0.850465 0.062943
v 11.892004 0.944908 0.542513
v 11.842411 1.264476 0.909625
v 11.777689 1.723539 1.065914
v 11.715180 2.199093 0.969501
v 11.671634 2.563714 0.646221
v 11.658717 2.719701 0.182695
v 11.197953 1.602236 -0.372701
v 11.299244 1.400065 -0.246787
v 11.349903 1.276618 -0.025017
v 11.336354 1.264971 0.233185
v 11.262229 1.368245 0.458633
v 11.147389 1.558769 0.590921
v 11.022606 1.785491 0.594600
v 10.921314 1.987661 0.468685
v 10.870656 2.111109 0.246916
v 10.884205 2.122756 -0.011286
v 10.958330 2.019481 -0.236735
v 11.073170 1.828958 -0.369022
v 12.927587 2.141928 0.533435
v 12.878499 2.304037 0.368034
v 12.868480 2.367483 0.154483
v 12.899405 2.319134 -0.059817
v 12.965567 2.169371 -0.243940
v 13.040173 1.976207 -0.307721
v 13.113346 1.765625 -0.245158
v 13.155953 1.623451 -0.092908
v 13.172606 1.542380 0.117633
v 13.141506 1.591579 0.329746
v 13.083452 1.718137 0.520052
v 13.001936 1.929069 0.590454
v 12.927587 2.141928 0.533435
v 12.878499 2.304037 0.368034
v 12.868480 2.367483 0.154483
v 12.899405 2.319134 -0.059817
v 12.965567 2.169371 -0.243940
v 13.040173 1.976207 -0.307721
v 13.113346 1.765625 -0.245158
v 13.155953 1.623451 -0.092908
v 13.172606 1.542380 0.117633
v 13.141506 1.591579 0.329746
v 13.083452 1.718137 0.520052
v 13.001936 1.929069 0.590454
v 12.927587 2.141928 0.533435
v 12.878499 2.304037 0.368034
v 12.868480 2.367483 0.154483
v 12.899405 2.319134 -0.059817
v 12.965567 2.169371 -0.243940
v 13.040173 1.976207 -0.307721
v 13.113346 1.765625 -0.245158
v 13.155953 1.623451 -0.092908
v 13.172606 1.542380 0.117633
v 13.141506 1.591579 0.329746
v 13.083452 1.718137 0.520052
v 13.001936 1.929069 0.590454
v 12.927587 2.141928 0.533435
v 12.878499 2.304037 0.368034
v 12.868480 2.367483 0.154483
v 12.899405 2.319134 -0.059817
v 12.965567 2.169371 -0.243940
v 13.040173 1.976207 -0.307721
v 13.113346 1.765625 -0.245158
v 13.155953 1.623451 -0.092908
v 13.172606 1.542380 0.117633
v 13.141506 1.591579 0.329746
v 13.083452 1.718137 0.520052
v 13.001936 1.929069 0.590454
vt 1.000000 1.000000
vt 0.916667 0.937670
vt 1.000000 0.937670
vt 0.916667 1.000000
vt 0.833333 0.937670
vt 0.833333 1.000000
vt 0.750000 0.937670
vt 0.750000 1.000000
vt 0.666667 0.937670
vt 0.666667 1.000000
vt 0.583333 0.937670
vt 0.583333 1.000000
vt 0.500000 0.937670
vt 0.500000 1.000000
vt 0.416667 0.937670
vt 0.416667 1.000000
vt 0.333333 0.937670
vt 0.333333 1.000000
vt 0.250000 0.937670
vt 0.250000 1.000000
vt 0.166667 0.937670
vt 0.459885 0.255354
vt 0.428915 0.154421
vt 0.490000 0.250000
vt 0.166667 1.000000
vt 0.083333 0.937670
vt 0.083333 1.000000
vt 0.000000 0.937670
vt 0.510000 0.250000
vt 0.630000 0.457846
vt 0.990000 0.250000
vt 0.083333 0.903575
vt 0.000000 0.903575
vt 0.166667 0.903575
vt 0.250000 0.903575
vt 0.333333 0.903575
vt 0.416667 0.903575
vt 0.500000 0.903575
vt 0.583333 0.903575
vt 0.666667 0.903575
vt 0.750000 0.903575
vt 0.833333 0.903575
vt 0.916667 0.903575
vt 1.000000 0.903575
vt 0.916667 0.500000
vt 1.000000 0.500000
vt 0.833333 0.500000
vt 0.750000 0.500000
vt 0.666667 0.500000
vt 0.583333 0.500000
vt 0.500000 0.500000
vt 0.416667 0.500000
vt 0.333333 0.500000
vt 0.250000 0.500000
vt 0.166667 0.500000
vt 0.083333 0.500000
vt 0.000000 0.500000
vt 0.037425 0.252884
vt 0.042154 0.370000
vt 0.010000 0.250000
vt 0.063952 0.149182
vt 0.142199 0.066778
vt 0.063952 0.149182
vt 0.149588 0.440523
vt 0.068022 0.354883
vt 0.149588 0.440523
vt 0.424273 0.357936
vt 0.459885 0.255354
vt 0.250008 0.467581
vt 0.250008 0.467581
vt 0.142199 0.066778
vt 0.249353 0.035475
vt 0.037425 0.252884
vt 0.428915 0.154421
vt 0.355846 0.433658
vt 0.355846 0.433658
vt 0.068022 0.354883
vt 0.068022 0.354883
vt 0.359032 0.065385
vt 0.359032 0.065385
vt 0.424273 0.357936
vt 0.149588 0.440523
vt 0.249353 0.035475
vt 0.068022 0.354883
vt 0.149588 0.440523
vt 0.359032 0.065385
vt 0.249353 0.035475
vt 0.142199 0.066778
vt 0.063952 0.149182
vt 0.424273 0.357936
vt 0.459885 0.255354
vt 0.250008 0.467581
vt 0.037425 0.252884
vt 0.428915 0.154421
vt 0.355846 0.433658
vt 0.428915 0.154421
vt 0.424273 0.357936
vt 0.359032 0.065385
vt 0.249353 0.035475
vt 0.142199 0.066778
vt 0.063952 0.149182
vt 0.459885 0.255354
vt 0.250008 0.467581
vt 0.037425 0.252884
vt 0.355846 0.433658
vt 0.370000 0.457846
vt 0.250000 0.490000
vt 0.457846 0.370000
vt 0.370000 0.042154
vt 0.457846 0.130000
vt 0.250000 0.010000
vt 0.000000 1.000000
vt 0.750000 0.490000
vt 0.870000 0.457846
vt 0.957846 0.370000
vt 0.957846 0.130000
vt 0.870000 0.042154
vt 0.750000 0.010000
vt 0.630000 0.042154
vt 0.542154 0.130000
vt 0.542154 0.370000
vt 0.130000 0.042154
vt 0.130000 0.457846
vt 0.042154 0.130000
vn 0.3236 0.7349 -0.5960
vn 0.3672 0.3457 -0.8635
vn 0.4260 -0.1256 -0.8960
vn 0.4808 -0.5489 -0.6838
vn 0.5144 -0.8083 -0.2864
vn 0.5183 -0.8345 0.1872
vn 0.4943 -0.6215 0.6078
vn 0.4521 -0.2297 0.8619
vn 0.4030 0.2324 0.8852
vn 0.3566 0.6433 0.6775
vn 0.9376 0.3430 0.0579
vn 0.3216 0.9001 0.2939
vn 0.3081 0.9359 -0.1707
vn -0.9909 -0.1338 -0.0174
vn -0.3768 0.3642 -0.8517
vn -0.4518 0.7455 -0.4900
vn -0.4968 0.8677 0.0131
vn -0.5050 0.7000 0.5050
vn -0.4943 0.2675 0.8271
vn -0.4970 -0.2868 0.8190
vn -0.5234 -0.6758 0.5190
vn -0.5315 -0.8226 0.2021
vn -0.4749 -0.8777 -0.0645
vn -0.3731 -0.8443 -0.3847
vn -0.3017 -0.6084 -0.7341
vn -0.3092 -0.1549 -0.9383
vn -0.0814 0.7463 -0.6606
vn -0.0195 0.3198 -0.9473
vn 0.0514 -0.1919 -0.9801
vn 0.1115 -0.6518 -0.7502
vn 0.1431 -0.9368 -0.3192
vn 0.1373 -0.9707 0.1972
vn 0.0966 -0.7442 0.6609
vn 0.0334 -0.3179 0.9475
vn -0.0349 0.1942 0.9803
vn -0.0908 0.6546 0.7505
vn -0.1210 0.9398 0.3196
vn -0.1180 0.9733 -0.1969
vn 0.0000 0.0000 1.0000
vn 0.1860 -0.1698 -0.9678
vn 0.2375 -0.6379 -0.7326
vn 0.2655 -0.9173 -0.2968
vn 0.2575 -0.9412 0.2189
vn 0.2120 -0.7021 0.6798
vn 0.1421 -0.2590 0.9554
vn 0.0734 0.2596 0.9629
vn 0.0303 0.7006 0.7129
vn 0.0224 0.9556 0.2939
vn 0.0425 0.9815 -0.1868
vn 0.9375 0.3430 0.0579
vn 0.0797 0.7721 -0.6305
vn 0.1290 0.3541 -0.9263
vn -0.6415 0.7468 -0.1754
vn -0.6294 0.7310 0.2635
vn -0.5949 0.4923 0.6354
vn -0.5493 0.0961 0.8301
vn -0.5178 -0.3402 0.7849
vn -0.5238 -0.6763 0.5179
vn -0.5651 -0.8139 0.1353
vn -0.6121 -0.7545 -0.2368
vn -0.6376 -0.5523 -0.5370
vn -0.6393 -0.2326 -0.7329
vn -0.6348 0.1673 -0.7543
vn -0.6379 0.5361 -0.5529
vn 0.0072 0.0202 -0.9998
vn 0.0757 -0.4995 -0.8630
vn 0.1198 -0.8556 -0.5036
vn 0.1315 -0.9906 -0.0378
vn 0.1089 -0.8897 0.4434
vn 0.0536 -0.5475 0.8351
vn -0.0212 -0.0279 0.9994
vn -0.0888 0.4941 0.8648
vn -0.1288 0.8537 0.5046
vn -0.1374 0.9898 0.0374
vn -0.1157 0.8881 -0.4449
vn -0.0644 0.5427 -0.8375
s off
f 11/15/12 35/16/12 34/17/12
f 13/18/13 36/19/13 35/16/13
f 15/20/14 37/21/14 36/19/14
f 17/22/15 38/23/15 37/21/15
f 19/24/16 39/25/16 38/23/16
f 21/26/17 40/27/17 39/25/17
f 23/28/18 41/29/18 40/27/18
f 25/30/19 42/31/19 41/29/19
f 27/32/20 43/33/20 42/31/20
f 29/34/21 44/35/21 43/33/21
f 66/36/22 67/37/22 17/38/22
f 31/39/23 45/40/23 44/35/23
f 33/41/24 34/42/24 45/40/24
f 28/43/25 32/44/25 16/45/25
f 56/46/26 34/42/26 57/47/26
f 55/48/27 45/40/27 56/46/27
f 54/49/28 44/35/28 55/48/28
f 53/50/29 43/33/29 54/49/29
f 52/51/30 42/31/30 53/50/30
f 51/52/31 41/29/31 52/51/31
f 50/53/32 40/27/32 51/52/32
f 49/54/33 39/25/33 50/53/33
f 48/55/34 38/23/34 49/54/34
f 47/56/35 37/21/35 48/55/35
f 46/57/36 36/19/36 47/56/36
f 57/58/37 35/16/37 46/57/37
f 57/58/38 12/59/38 10/60/38
f 46/57/39 14/61/39 12/59/39
f 47/56/40 16/62/40 14/61/40
f 48/55/41 18/63/41 16/62/41
f 49/54/42 20/64/42 18/63/42
f 50/53/43 22/65/43 20/64/43
f 51/52/44 24/66/44 22/65/44
f 52/51/45 26/67/45 24/66/45
f 53/50/46 28/68/46 26/67/46
f 54/49/47 30/69/47 28/68/47
f 55/48/48 32/70/48 30/69/48
f 56/46/49 10/71/49 32/70/49
f 60/72/22 31/73/22 29/74/22
f 59/75/50 70/76/50 71/77/50
f 74/78/50 85/79/50 86/80/50
f 66/36/50 77/81/50 78/82/50
f 63/83/50 74/78/50 75/84/50
f 58/85/50 81/86/50 70/76/50
f 60/72/50 71/77/50 72/87/50
f 67/37/50 78/82/50 79/88/50
f 64/89/50 75/84/50 76/90/50
f 61/91/50 72/87/50 73/92/50
f 68/93/50 79/88/50 80/94/50
f 65/95/50 76/90/50 77/81/50
f 62/96/50 73/92/50 74/78/50
f 69/97/50 80/94/50 81/86/50
f 86/80/50 97/98/50 98/99/50
f 81/86/50 92/100/50 93/101/50
f 71/77/50 82/102/50 83/103/50
f 78/82/50 89/104/50 90/105/50
f 75/84/50 86/80/50 87/106/50
f 70/76/50 93/101/50 82/102/50
f 72/87/50 83/103/50 84/107/50
f 79/88/50 90/105/50 91/108/50
f 76/90/50 87/106/50 88/109/50
f 73/92/50 84/107/50 85/79/50
f 80/94/50 91/108/50 92/100/50
f 77/81/50 88/109/50 89/104/50
f 103/110/22 101/111/22 97/98/22
f 93/101/50 104/112/50 105/113/50
f 83/103/50 94/114/50 95/115/50
f 90/105/50 101/111/50 102/116/50
f 87/106/50 98/99/50 99/117/50
f 82/102/50 105/113/50 94/114/50
f 84/107/50 95/115/50 96/118/50
f 91/108/50 102/116/50 103/110/50
f 88/109/50 99/117/50 100/119/50
f 85/79/50 96/118/50 97/98/50
f 92/100/50 103/110/50 104/112/50
f 89/104/50 100/119/50 101/111/50
f 11/15/51 13/18/51 35/16/51
f 13/18/52 15/20/52 36/19/52
f 15/20/53 17/22/53 37/21/53
f 17/22/54 19/24/54 38/23/54
f 19/24/55 21/26/55 39/25/55
f 21/26/56 23/28/56 40/27/56
f 23/28/57 25/30/57 41/29/57
f 25/30/58 27/32/58 42/31/58
f 27/32/59 29/34/59 43/33/59
f 29/34/60 31/39/60 44/35/60
f 13/120/22 11/121/22 63/83/22
f 13/120/22 63/83/22 64/89/22
f 17/38/22 15/122/22 66/36/22
f 15/122/22 13/120/22 65/95/22
f 21/123/22 19/124/22 68/93/22
f 19/124/22 17/38/22 67/37/22
f 69/97/22 23/125/22 21/123/22
f 68/93/61 69/97/61 21/123/61
f 13/120/61 64/89/61 65/95/61
f 15/122/61 65/95/61 66/36/61
f 67/37/22 68/93/22 19/124/22
f 31/39/62 33/41/62 45/40/62
f 33/41/63 11/126/63 34/42/63
f 32/44/25 10/127/25 12/128/25
f 12/128/25 14/129/25 16/45/25
f 16/45/25 18/130/25 20/131/25
f 20/131/25 22/132/25 24/133/25
f 24/133/25 26/134/25 28/43/25
f 28/43/25 30/135/25 32/44/25
f 32/44/25 12/128/25 16/45/25
f 16/45/25 20/131/25 24/133/25
f 24/133/25 28/43/25 16/45/25
f 56/46/64 45/40/64 34/42/64
f 55/48/65 44/35/65 45/40/65
f 54/49/66 43/33/66 44/35/66
f 53/50/67 42/31/67 43/33/67
f 52/51/68 41/29/68 42/31/68
f 51/52/69 40/27/69 41/29/69
f 50/53/70 39/25/70 40/27/70
f 49/54/71 38/23/71 39/25/71
f 48/55/72 37/21/72 38/23/72
f 47/56/73 36/19/73 37/21/73
f 46/57/74 35/16/74 36/19/74
f 57/58/75 34/17/75 35/16/75
f 57/58/76 46/57/76 12/59/76
f 46/57/77 47/56/77 14/61/77
f 47/56/78 48/55/78 16/62/78
f 48/55/79 49/54/79 18/63/79
f 49/54/80 50/53/80 20/64/80
f 50/53/81 51/52/81 22/65/81
f 51/52/82 52/51/82 24/66/82
f 52/51/83 53/50/83 26/67/83
f 53/50/84 54/49/84 28/68/84
f 54/49/85 55/48/85 30/69/85
f 55/48/86 56/46/86 32/70/86
f 56/46/87 57/47/87 10/71/87
f 25/136/22 23/125/22 69/97/22
f 25/136/22 69/97/22 58/85/22
f 63/83/22 11/121/22 62/96/22
f 11/121/22 33/137/22 62/96/22
f 27/138/22 25/136/22 58/85/22
f 27/138/22 58/85/22 59/75/22
f 62/96/22 33/137/22 61/91/22
f 33/137/61 31/73/61 61/91/61
f 29/74/22 27/138/22 59/75/22
f 60/72/22 61/91/22 31/73/22
f 29/74/61 59/75/61 60/72/61
f 59/75/50 58/85/50 70/76/50
f 74/78/50 73/92/50 85/79/50
f 66/36/50 65/95/50 77/81/50
f 63/83/50 62/96/50 74/78/50
f 58/85/50 69/97/50 81/86/50
f 60/72/50 59/75/50 71/77/50
f 67/37/50 66/36/50 78/82/50
f 64/89/50 63/83/50 75/84/50
f 61/91/50 60/72/50 72/87/50
f 68/93/50 67/37/50 79/88/50
f 65/95/50 64/89/50 76/90/50
f 62/96/50 61/91/50 73/92/50
f 69/97/50 68/93/50 80/94/50
f 86/80/50 85/79/50 97/98/50
f 81/86/50 80/94/50 92/100/50
f 71/77/50 70/76/50 82/102/50
f 78/82/50 77/81/50 89/104/50
f 75/84/50 74/78/50 86/80/50
f 70/76/50 81/86/50 93/101/50
f 72/87/50 71/77/50 83/103/50
f 79/88/50 78/82/50 90/105/50
f 76/90/50 75/84/50 87/106/50
f 73/92/50 72/87/50 84/107/50
f 80/94/50 79/88/50 91/108/50
f 77/81/50 76/90/50 88/109/50
f 99/117/22 98/99/22 100/119/22
f 98/99/22 97/98/22 100/119/22
f 97/98/22 96/118/22 95/115/22
f 95/115/22 94/114/22 103/110/22
f 94/114/22 105/113/22 103/110/22
f 105/113/61 104/112/61 103/110/61
f 103/110/22 102/116/22 101/111/22
f 101/111/22 100/119/22 97/98/22
f 97/98/22 95/115/22 103/110/22
f 93/101/50 92/100/50 104/112/50
f 83/103/50 82/102/50 94/114/50
f 90/105/50 89/104/50 101/111/50
f 87/106/50 86/80/50 98/99/50
f 82/102/50 93/101/50 105/113/50
f 84/107/50 83/103/50 95/115/50
f 91/108/50 90/105/50 102/116/50
f 88/109/50 87/106/50 99/117/50
f 85/79/50 84/107/50 96/118/50
f 92/100/50 91/108/50 103/110/50
f 89/104/50 88/109/50 100/119/50
